# AST/ASF file generated using VICON BodyLanguage
# -----------------------------------------------
:version 1.10
:name VICON
:units
  mass 1.0
  length 0.45
  angle deg
:documentation
   .ast/.asf automatically generated from VICON data using
   VICON BodyBuilder and BodyLanguage model FoxedUp or BRILLIANT.MOD
:root
   order TX TY TZ RX RY RZ
   axis XYZ
   position 0 0 0  
   orientation 0 0 0 
:bonedata
  begin
     id 1 
     name lhipjoint
     direction 0.588788 -0.725889 0.355548 
     length 2.37778 
     axis 0 0 0  XYZ
  end
  begin
     id 2 
     name lfemur
     direction 0.34202 -0.939693 0  
     length 6.86393  
     axis 0 0 20  XYZ
    dof rx ry rz
    limits (-160.0 20.0)
           (-70.0 70.0)
           (-60.0 70.0)
  end
  begin
     id 3 
     name ltibia
     direction 0.34202 -0.939693 0   
     length 7.32851   
     axis 0 0 20   XYZ
    dof rx
    limits (-10.0 170.0)
  end
  begin
     id 4 
     name lfoot
     direction 0.0626533 -0.172138 0.983078   
     length 1.98929   
     axis -90 7.62852e-016 20   XYZ
    dof rx rz
    limits (-45.0 90.0)
           (-70.0 20.0)
  end
  begin
     id 5 
     name ltoes
     direction 1.53647e-011 -4.21734e-011 1   
     length 1.00479   
     axis -90 7.62852e-016 20   XYZ
    dof rx
    limits (-90.0 20.0)
  end
  begin
     id 6 
     name rhipjoint
     direction -0.59141 -0.724168 0.354705   
     length 2.38343  
     axis 0 0 0  XYZ 
  end
  begin
     id 7 
     name rfemur
     direction -0.34202 -0.939693 0   
     length 6.95589   
     axis 0 0 -20   XYZ
    dof rx ry rz
    limits (-160.0 20.0)
           (-70.0 70.0)
           (-70.0 60.0)
  end
  begin
     id 8 
     name rtibia
     direction -0.34202 -0.939693 0   
     length 7.32327   
     axis 0 0 -20   XYZ
    dof rx
    limits (-10.0 170.0)
 end
 begin
     id 9 
     name rfoot
     direction -0.0660461 -0.18146 0.981178   
     length 1.85272  
     axis -90 -7.62852e-016 -20   XYZ
    dof rx rz
    limits (-45.0 90.0)
           (-20.0 70.0)
  end
  begin
     id 10 
     name rtoes
     direction -1.53586e-011 -4.21988e-011 1   
     length 0.93746   
     axis -90 -7.62852e-016 -20   XYZ
    dof rx
    limits (-90.0 20.0)
  end
  begin
     id 11 
     name lowerback
     direction -0.0107982 0.991059 0.13299   
     length 1.98691   
     axis 0 0 0   XYZ
    dof rx ry rz
    limits (-20.0 45.0)
           (-30.0 30.0)
           (-30.0 30.0)
  end
  begin
     id 12 
     name upperback
     direction 0.0076296 0.999916 0.0104576   
     length 1.99501   
     axis 0 0 0   XYZ
    dof rx ry rz
    limits (-20.0 45.0)
           (-30.0 30.0)
           (-30.0 30.0)
  end
  begin
     id 13 
     name thorax
     direction 0.01176 0.998615 -0.0512909   
     length 2.03144   
     axis 0 0 0   XYZ
    dof rx ry rz
    limits (-20.0 45.0)
           (-30.0 30.0)
           (-30.0 30.0)
  end
  begin
     id 14 
     name lowerneck
     direction -0.0171909 0.999644 0.0204011   
     length 1.71818   
     axis 0 0 0   XYZ
    dof rx ry rz
    limits (-20.0 45.0)
           (-30.0 30.0)
           (-30.0 30.0)
  end
  begin
     id 15 
     name upperneck
     direction 0.0250902 0.997482 -0.0663316   
     length 1.66199   
     axis 0 0 0   XYZ
    dof rx ry rz
    limits (-20.0 45.0)
           (-30.0 30.0)
           (-30.0 30.0)
  end
  begin
     id 16
     name head
     direction 0.00881535 0.99956 -0.0283365  
     length 1.81545  
     axis 0 0 0   XYZ
    dof rx ry rz
    limits (-20.0 45.0)
           (-30.0 30.0)
           (-30.0 30.0)
  end
  begin
     id 17 
     name lclavicle
     direction 0.840411 0.486876 -0.238035  
     length 3.30409  
     axis 0 0 0   XYZ
    dof ry rz
    limits (-20.0 10.0)
           (0.0 20.0)
  end
  begin
     id 18 
     name lhumerus
     direction 1 -4.48977e-011 -5.16239e-027   
     length 4.62672   
     axis 180 -30 -90   XYZ
    dof rx ry rz
    limits (-60.0 90.0)
           (-90.0 90.0)
           (-90.0 90.0)
  end
  begin
     id 19
     name lradius
     direction 1 -4.48977e-011 -8.71171e-027   
     length 3.11018   
     axis 180 -30 -90   XYZ
    dof rx
    limits (-10.0 170.0)
  end
  begin
     id 20
     name lwrist
     direction 1 -4.48912e-011 -1.03764e-026   
     length 1.55509   
     axis 9.09556e-015 90 90   XYZ
    dof ry
    limits (-180.0 0.0)
 end
  begin
     id 21 
     name lhand
     direction 1 -4.49072e-011 -2.07528e-026   
     length 0.743834   
     axis 1.3242e-014 90 90   XYZ
    dof rx rz
    limits (-90.0 90.0)
           (-45.0 45.0)
  end
  begin
     id 22 
     name lfingers
     direction 1 -4.48909e-011 -4.15056e-026   
     length 0.599698   
     axis 2.64841e-014 90 90   XYZ
    dof rx
    limits (0.0 90.0)
  end
  begin
     id 23
     name lthumb
     direction 0.707107 -6.35013e-011 0.707107   
     length 0.86105   
     axis -90 45 2.85299e-015   XYZ
    dof rx rz
    limits (-45.0 45.0)
           (-45.0 45.0)
  end
  begin
     id 24 
     name rclavicle
     direction -0.835208 0.500237 -0.228452   
     length 3.2716  
     axis 0 0 0   XYZ 
    dof ry rz
    limits (-10.0 20.0)
           (-20.0 0.0)
  end
  begin
     id 25 
     name rhumerus
     direction -1 -4.48978e-011 -5.1953e-028  
     length 4.55919   
     axis 180 30 90   XYZ
    dof rx ry rz
    limits (-90.0 60.0)
           (-90.0 90.0)
           (-90.0 90.0)
  end
  begin
     id 26 
     name rradius
     direction -1 -4.48961e-011 -5.99546e-027   
     length 3.22748   
     axis 180 30 90   XYZ
    dof rx
    limits (-10.0 170.0)
  end
  begin
     id 27 
     name rwrist
     direction -1 -4.48986e-011 -1.03764e-026   
     length 1.61374   
     axis 9.09556e-015 -90 -90   XYZ
    dof ry
    limits (-180.0 0.0)
  end
  begin
     id 28
     name rhand
     direction -1 -4.4899e-011 -2.07528e-026   
     length 0.700882   
     axis 1.3242e-014 -90 -90   XYZ
    dof rx rz
    limits (-90.0 90.0)
           (-45.0 45.0)
  end
  begin
     id 29
     name rfingers
     direction -1 -4.48991e-011 -4.15056e-026   
     length 0.565069   
     axis 2.64841e-014 -90 -90   XYZ
    dof rx
    limits (0.0 90.0)
  end
  begin
     id 30
     name rthumb
     direction -0.707107 -6.34804e-011 0.707107   
     length 0.811329   
     axis -90 -45 -2.85299e-015   XYZ
    dof rx rz
    limits (-45.0 45.0)
           (-45.0 45.0)
  end
:hierarchy
  begin
    root lhipjoint rhipjoint lowerback
    lhipjoint lfemur
    lfemur ltibia
    ltibia lfoot
    lfoot ltoes
    rhipjoint rfemur
    rfemur rtibia
    rtibia rfoot
    rfoot rtoes
    lowerback upperback
    upperback thorax
    thorax lowerneck lclavicle rclavicle
    lowerneck upperneck
    upperneck head
    lclavicle lhumerus
    lhumerus lradius
    lradius lwrist
    lwrist lhand lthumb
    lhand lfingers
    rclavicle rhumerus
    rhumerus rradius
    rradius rwrist
    rwrist rhand rthumb
    rhand rfingers
  end

#!OML:ASF F:\VICON\USERDATA\INSTALL\SteveWalk\SteveWalk.ASF
:FULLY-SPECIFIED
:DEGREES
280
root 1.18102 16.5445 0.284211 15.5048 7.1182 0.103224
lowerback -14.1907 -3.32656 -0.136739
upperback -2.85265 -4.5128 2.34096
thorax 5.12384 -2.23608 1.70714
lowerneck -0.437627 -7.17566 -6.11605
upperneck 12.7252 -9.73474 2.73789
head 4.32335 -4.95122 1.41542
rclavicle -1.71949e-014 -5.56597e-015
rhumerus -32.9197 9.39324 -85.9781
rradius 75.6812
rwrist -32.0661
rhand -18.6765 -45.3198
rfingers 7.12502
rthumb 7.61745 -435.163
lclavicle -1.71949e-014 -5.56597e-015
lhumerus -31.755 1.99018 82.3939
lradius 43.5688
lwrist 1.25029
lhand -17.2165 -16.5289
lfingers 7.12502
lthumb 9.02647 13.258
rfemur -40.1204 -6.31472 25.3651
rtibia 27.2651
rfoot -7.1033 2.49348
rtoes -15.3003
lfemur -5.99143 0.021855 -18.9414
ltibia 32.8039
lfoot -8.81147 -13.9899
ltoes -25.4393
281
root 1.1692 16.5481 0.427298 15.3994 6.71593 0.0462143
lowerback -14.3041 -3.09427 -0.0609758
upperback -2.84678 -4.22138 2.40697
thorax 5.18111 -2.09157 1.78289
lowerneck -0.214544 -6.89485 -5.96619
upperneck 12.9527 -9.36029 2.57833
head 4.32379 -4.77083 1.3687
rclavicle 4.77083e-015 1.55052e-014
rhumerus -32.9432 9.31728 -85.871
rradius 75.324
rwrist -31.8045
rhand -18.9729 -45.5059
rfingers 7.12502
rthumb 7.33134 -435.359
lclavicle 4.77083e-015 1.55052e-014
lhumerus -32.0129 2.06086 82.4411
lradius 43.2687
lwrist 1.36926
lhand -17.254 -16.4991
lfingers 7.12502
lthumb 8.99021 13.2893
rfemur -39.6864 -5.51744 25.1482
rtibia 27.7558
rfoot -7.593 2.48463
rtoes -14.0185
lfemur -6.64121 0.380847 -18.8631
ltibia 34.6462
lfoot -5.88202 -14.6043
ltoes -21.0398
282
root 1.17215 16.5566 0.571662 15.1562 6.56538 -0.0171116
lowerback -14.3186 -2.89757 0.308351
upperback -2.74246 -4.01713 2.37995
thorax 5.26463 -1.98505 1.58227
lowerneck -0.624222 -6.52849 -5.68569
upperneck 13.6711 -8.85632 2.45609
head 4.57021 -4.51378 1.28691
rclavicle 1.2424e-014 1.23246e-014
rhumerus -32.7991 9.10979 -85.8303
rradius 74.9485
rwrist -31.4467
rhand -19.2208 -45.4553
rfingers 7.12502
rthumb 7.09202 -435.316
lclavicle 1.2424e-014 1.23246e-014
lhumerus -32.1578 2.08492 82.42
lradius 43.0596
lwrist 1.41699
lhand -17.3873 -16.4069
lfingers 7.12502
lthumb 8.86164 13.387
rfemur -39.047 -5.46234 25.1582
rtibia 28.1463
rfoot -8.12349 2.67387
rtoes -15.1666
lfemur -7.18151 0.628546 -18.7676
ltibia 36.5424
lfoot -2.87823 -15.0417
ltoes -17.3523
283
root 1.168 16.5661 0.704624 14.9983 6.76228 -0.205267
lowerback -14.2833 -2.84677 0.730263
upperback -2.66233 -4.01941 2.46351
thorax 5.3075 -1.97976 1.43251
lowerneck -0.950935 -6.23469 -5.43291
upperneck 14.1466 -8.43799 2.25037
head 4.73268 -4.30456 1.18811
rclavicle -1.49089e-016 1.43125e-014
rhumerus -32.571 9.06822 -85.7622
rradius 74.5602
rwrist -31.2435
rhand -19.5091 -45.8208
rfingers 7.12502
rthumb 6.81367 -435.691
lclavicle -1.49089e-016 1.43125e-014
lhumerus -32.3784 2.10992 82.3923
lradius 43.0507
lwrist 1.79989
lhand -17.3942 -16.1221
lfingers 7.12502
lthumb 8.85499 13.6722
rfemur -38.5223 -5.69652 25.4271
rtibia 28.4907
rfoot -8.93611 2.7824
rtoes -15.9894
lfemur -7.93818 0.812465 -18.3831
ltibia 38.4134
lfoot 0.00977008 -15.5639
ltoes -14.5696
284
root 1.16332 16.5788 0.830688 14.8326 7.18522 -0.53762
lowerback -14.0776 -2.84111 1.34495
upperback -2.71641 -4.10426 2.60877
thorax 5.10767 -2.01387 1.23623
lowerneck -1.0009 -5.95282 -5.26993
upperneck 14.6094 -8.04263 2.0309
head 4.85168 -4.11512 1.10841
rclavicle 1.9133e-014 -1.11319e-014
rhumerus -32.4913 8.99184 -85.7054
rradius 74.2545
rwrist -31.1209
rhand -19.418 -46.3673
rfingers 7.12502
rthumb 6.90165 -436.235
lclavicle 1.9133e-014 -1.11319e-014
lhumerus -32.8057 2.13438 82.3752
lradius 42.9802
lwrist 2.24998
lhand -17.1372 -16.2583
lfingers 7.12502
lthumb 9.10293 13.5253
rfemur -37.9357 -6.00967 25.8684
rtibia 28.6606
rfoot -9.66454 2.85634
rtoes -15.4973
lfemur -8.88605 0.84795 -17.7607
ltibia 40.4404
lfoot 2.81622 -16.2028
ltoes -11.6285
285
root 1.14038 16.5799 0.97756 14.5087 6.64513 -0.204966
lowerback -13.9857 -2.67141 0.89068
upperback -2.5881 -3.8119 2.54726
thorax 5.21327 -1.87671 1.4808
lowerneck -1.43537 -5.51579 -4.71991
upperneck 15.3562 -7.41366 1.58475
head 5.09241 -3.80161 0.894675
rclavicle -3.25013e-014 -7.15625e-015
rhumerus -32.44 8.92605 -85.656
rradius 74.1217
rwrist -31.0542
rhand -19.4799 -46.0694
rfingers 7.12502
rthumb 6.84193 -435.939
lclavicle -3.25013e-014 -7.15625e-015
lhumerus -33.0132 2.06674 82.3623
lradius 42.7365
lwrist 2.69447
lhand -17.0591 -17.1614
lfingers 7.12502
lthumb 9.1783 12.6188
rfemur -37.0227 -5.17 25.2625
rtibia 28.8068
rfoot -10.0308 2.49723
rtoes -16.184
lfemur -9.45527 1.4137 -18.003
ltibia 42.4368
lfoot 5.60243 -16.5148
ltoes -7.8123
286
root 1.12379 16.587 1.08859 14.5584 7.47007 -0.762032
lowerback -13.9469 -2.74804 1.66554
upperback -2.65404 -4.03311 2.73622
thorax 5.08823 -1.97477 1.20803
lowerneck -1.55487 -5.26527 -4.6065
upperneck 15.6932 -7.089 1.64484
head 5.20338 -3.63275 0.905273
rclavicle 1.56543e-014 -4.77083e-015
rhumerus -32.3284 8.80035 -85.6861
rradius 73.9815
rwrist -30.9424
rhand -19.8203 -44.9567
rfingers 7.12502
rthumb 6.51327 -434.836
lclavicle 1.56543e-014 -4.77083e-015
lhumerus -33.0959 1.91056 82.2749
lradius 42.6509
lwrist 3.03245
lhand -16.933 -17.5836
lfingers 7.12502
lthumb 9.29997 12.1913
rfemur -36.6177 -5.49348 26.0036
rtibia 28.8531
rfoot -10.4595 2.2668
rtoes -16.6907
lfemur -10.9354 1.04774 -16.9482
ltibia 44.5699
lfoot 8.47567 -17.1123
ltoes -5.7203
